# xmcd
#
# Track frame offsets: 
#        150
#        12381
#        25475
#        36042
#        48019
#        57496
#        71579
#        83568
#        94330
#        117975
#        132284
#        145868
#        159584
#        178953
#        192057
#
# Disc length: 2803 seconds
#
# Revision: 0
# Processed by: cddbd v1.5.2PL0 Copyright (c) Steve Scherf et al.
# Submitted via: ExactAudioCopy v0.95b4
#
DISCID=cd0af10f
DTITLE=Various Artist - This Is Blues [disc 2: 1950-1973]
DYEAR=2007
DGENRE=Blues
TTITLE0=Memphis Slim and the House Rockers - Mother Earth [1950]
TTITLE1=Bobo "Slim" Thomas - Catfish Blues [1951]
TTITLE2=Willie Love and His Three Aces feat. Elmore James - Everybody's 
TTITLE2=Fishing [1951]
TTITLE3=Big Joe Williams and His 9-String Guitar - Delta Blues [1951]
TTITLE4=Howlin' Wolf - Smile at Me [1951]
TTITLE5=Arthur "Big Boy" Crudup - Make a Little Love with Me [1952]
TTITLE6=Sonny Boy Williamson [II] and His House Rockers - From the Botto
TTITLE6=m [1954]
TTITLE7=Junior Wells - Come On in This House [1959]
TTITLE8=B.B. King - You've Done Lost Your Good Thing Now [1960]
TTITLE9=Buddy Guy - Broken-Hearted Blues [1960]
TTITLE10=Lightnin' Hopkins - Mojo Hand [1960]
TTITLE11=Roosevelt Sykes - 44 Blues [1963]
TTITLE12=John Lee Hooker with the Groundhogs - Little Dreamers [1965]
TTITLE13=Mississippi Fred McDowell - You Got to Move
TTITLE14=Charles Brown - Driftin' Blues [c1973]
EXTD=Disc 1 recorded 1927-11-26/1950.\nDisc 2 recorded 1950-03/c1973.\n
EXTD=The album includes a third undocumented bonus disc that apparentl
EXTD=y varies. Two such possibilities are Ray Charles: "The Essentials
EXTD=" (Cleopatra 4424, 2006-04-25) and Tony Bennett: "The Platinum An
EXTD=thology" (Cleopatra 8053, 2005-08-23).\nProduced and compiled by 
EXTD=Athan Maroulis.\nMastering: Mr. Master, Agoura Hills US-CA\n2CD+v
EXTD=ariable bonus CD: Cleopatra/Master Classics MCS 8074 (2007-06-26)
EXTD=, UPC 881162807429.
EXTT0=(Peter Chatman/Lewis Simpkins)
EXTT1=(Robert Petway)
EXTT2=(Willie Love)
EXTT3=(Joe Williams)
EXTT4=(Chester Burnett)
EXTT5=(Arthur Crudup/Lillian McMurry)
EXTT6=(Sonny Boy Williamson [I])
EXTT7=(Junior Wells)
EXTT8=(Joe Josea/Riley "B.B." King)
EXTT9=(Willie Dixon)
EXTT10=(Sam "Lightnin'" Hopkins/Levy/Lewis)
EXTT11=(Roosevelt Sykes)
EXTT12=(John Lee Hooker)
EXTT13=(Gary Davis/Fred McDowell)
EXTT14=(Charles Brown/Johnny Moore's Three Blazers/Eddie Williams)
PLAYORDER=
